<svg id="Layer_1" data-name="Layer 1" xmlns="http://www.w3.org/2000/svg" xmlns:xlink="http://www.w3.org/1999/xlink" viewBox="0 0 383.67 449.1"><defs><linearGradient id="linear-gradient" x1="2.5" y1="769.27" x2="2.38" y2="769.08" gradientTransform="matrix(167, 0, 0, -183.4, 170.96, 141365.26)" gradientUnits="userSpaceOnUse"><stop offset="0" stop-color="#fff"/><stop offset="1" stop-color="#fff" stop-opacity="0"/></linearGradient><linearGradient id="linear-gradient-2" x1="1.87" y1="768.92" x2="1.34" y2="768.58" gradientTransform="matrix(187.2, 0, 0, -511.3, 448.96, 393335.85)" xlink:href="#linear-gradient"/><linearGradient id="linear-gradient-3" x1="1.98" y1="768.95" x2="1.45" y2="768.61" gradientTransform="matrix(187.2, 0, 0, -511.3, 405.66, 393372.25)" xlink:href="#linear-gradient"/><linearGradient id="linear-gradient-4" x1="0.4" y1="769.39" x2="1.07" y2="769.28" gradientTransform="matrix(99.22, 0, 0, -234.03, 793.52, 180433.83)" xlink:href="#linear-gradient"/><linearGradient id="linear-gradient-5" x1="2.19" y1="768.73" x2="1.92" y2="768.55" gradientTransform="matrix(297.7, 0, 0, -350.6, -34.64, 269698.77)" xlink:href="#linear-gradient"/><linearGradient id="linear-gradient-6" x1="1.33" y1="769.65" x2="1.4" y2="769.14" gradientTransform="matrix(297.7, 0, 0, -326.9, 391.26, 251999.78)" xlink:href="#linear-gradient"/><linearGradient id="linear-gradient-7" x1="2.58" y1="770.57" x2="2.25" y2="770.38" gradientTransform="matrix(83.6, 0, 0, -113.93, 460.56, 88200.69)" xlink:href="#linear-gradient"/><linearGradient id="linear-gradient-8" x1="1.98" y1="769.29" x2="1.59" y2="769.04" gradientTransform="matrix(87.96, 0, 0, -118.03, 554.13, 91037.9)" xlink:href="#linear-gradient"/></defs><path id="Path" d="M622.88,301.71,535,251v45.79l87.9,50.74Z" transform="translate(-495.55 -122.9)" opacity="0.2" fill="url(#linear-gradient)" style="isolation:isolate"/><path id="Path-2" d="M552.82,276.65c0,3.79-2.21,5.53-5,4s-5-6-5-9.74,2.21-5.52,5-3.94S552.82,272.86,552.82,276.65Z" transform="translate(-495.55 -122.9)" fill="#f2c94c"/><path id="Path-3" d="M557.45,273.6l32.06,18.48v7.15l-32.06-18.42Z" transform="translate(-495.55 -122.9)" fill="#fff" opacity="0.15" style="isolation:isolate"/><path id="Path-4" d="M557.5,289l56.33,32.48v7.16L557.5,296.13Z" transform="translate(-495.55 -122.9)" fill="#fff" opacity="0.15" style="isolation:isolate"/><path id="Path-5" d="M691.94,153.85l98.54,56.9V423l-98.54-56.84Z" transform="translate(-495.55 -122.9)" opacity="0.07" fill="url(#linear-gradient-2)" style="isolation:isolate"/><path id="Path-6" d="M669.15,173l98.53,56.9V442.14L669.15,385.3Z" transform="translate(-495.55 -122.9)" opacity="0.3" fill="url(#linear-gradient-3)" style="isolation:isolate"/><path id="Path-7" d="M678.67,291.29,757.84,337v7.15l-79.17-45.69Z" transform="translate(-495.55 -122.9)" fill="#fff" opacity="0.15" style="isolation:isolate"/><path id="Path-8" d="M684.2,308.71,752.26,348v7.16L684.2,315.87Z" transform="translate(-495.55 -122.9)" fill="#fff" opacity="0.15" style="isolation:isolate"/><path id="Path-9" d="M643.41,336.61V312.92l58.16,33.58v23.69Z" transform="translate(-495.55 -122.9)" fill="#f2994a"/><path id="Path-10" d="M846.32,331.55c-4.52-7.21-10.79-8.16-11.05-8.21-.63-.1-1,.48-1,1.32v19c0,6.48-2.21,10.64-6.58,12.43a1.24,1.24,0,0,0-.68,1.26c0,9.16.15,48.48.21,60.74a6.94,6.94,0,0,0,3.15,5.48l36.27,20.95c7.16,4.15,11.74,1.57,12.53-6.95l.05-37.74c0-5.74-1-11.64-4.16-16.53a18.59,18.59,0,0,0-6.1-6.21l-18.37-10.58V348.87C850.64,341.92,849.17,336.13,846.32,331.55Z" transform="translate(-495.55 -122.9)" opacity="0.2" fill="url(#linear-gradient-4)" style="isolation:isolate"/><path id="Path-11" d="M802.42,341.13,823,353v67.16L802.42,408.3Z" transform="translate(-495.55 -122.9)" fill="#f2c94c"/><path id="Path-12" d="M652.2,213.33,495.55,122.9l.05,81.64L638.41,287l13.84,20.48Z" transform="translate(-495.55 -122.9)" opacity="0.3" fill="url(#linear-gradient-5)" style="isolation:isolate"/><path id="Path-13" d="M611.93,209.91l-34.32-19.79v7.16l34.32,19.79Z" transform="translate(-495.55 -122.9)" fill="#fff" opacity="0.15" style="isolation:isolate"/><path id="Path-14" d="M611.93,224.28l-85-49.06v7.16l85,49.06Z" transform="translate(-495.55 -122.9)" fill="#fff" opacity="0.15" style="isolation:isolate"/><path id="Path-15" d="M611.93,238.65,509.39,179.43v7.16l102.54,59.22Z" transform="translate(-495.55 -122.9)" fill="#fff" opacity="0.15" style="isolation:isolate"/><path id="Path-16" d="M620.35,222.28c0,6.74,4,14.47,8.9,17.32s8.89-.32,8.89-7.06-4-14.47-8.89-17.31S620.35,215.54,620.35,222.28Z" transform="translate(-495.55 -122.9)" fill="#f2994a"/><path id="Path-17" d="M719.73,399.93l156.65,90.43,0,81.64L733.58,489.57l-13.8,4.53Z" transform="translate(-495.55 -122.9)" opacity="0.3" fill="url(#linear-gradient-6)" style="isolation:isolate"/><path id="Path-18" d="M760,443.09l34.32,19.79V470L760,450.25Z" transform="translate(-495.55 -122.9)" fill="#fff" opacity="0.15" style="isolation:isolate"/><path id="Path-19" d="M760,457.41l62,35.74v7.16l-62-35.74Z" transform="translate(-495.55 -122.9)" fill="#fff" opacity="0.15" style="isolation:isolate"/><path id="Path-20" d="M760,471.78l80.17,46.27v7.16L760,478.94Z" transform="translate(-495.55 -122.9)" fill="#fff" opacity="0.15" style="isolation:isolate"/><path id="Path-21" d="M751.58,445.67c0,6.74-4,9.9-8.9,7.05s-8.89-10.58-8.89-17.31,4-9.9,8.89-7.06S751.52,438.93,751.58,445.67Z" transform="translate(-495.55 -122.9)" fill="#f2c94c"/><path id="Path-22" d="M665.52,385.93a12.48,12.48,0,0,1,5.68,9.84v16.06l10.63,6.1a12.46,12.46,0,0,1,5.69,9.84c0,3.64-2.53,5.11-5.69,3.32L671.2,425V441c0,3.63-2.53,5.1-5.68,3.31a12.45,12.45,0,0,1-5.69-9.84V418.46l-10.63-6.11a12.46,12.46,0,0,1-5.69-9.84c0-3.63,2.53-5.11,5.69-3.32l10.63,6.11V389.24C659.78,385.61,662.36,384.09,665.52,385.93Z" transform="translate(-495.55 -122.9)" opacity="0.2" fill="url(#linear-gradient-7)" style="isolation:isolate"/><path id="Path-23" d="M718.21,283.44c-45.17-58.74-12.48-80,0-45.58C730.73,218.07,763.37,277.39,718.21,283.44Z" transform="translate(-495.55 -122.9)" opacity="0.05" fill="url(#linear-gradient-8)" style="isolation:isolate"/><path id="Path-24" d="M707.68,294c-45.17-58.74-12.48-80,0-45.58C720.21,228.6,752.84,287.92,707.68,294Z" transform="translate(-495.55 -122.9)" fill="#fff" opacity="0.3" style="isolation:isolate"/></svg>